name C:/MyDriveSym/Projects/mobilecap/Data\Session20210819_0002\mocap\ForceDataProcessed\walkingTS2_forces.mot
datacolumns 19
datarows 9
range 0.00000000 0.00400000
endheader 
time	R_ground_force_vx	R_ground_force_vy	R_ground_force_vz	R_ground_force_px	R_ground_force_py	R_ground_force_pz	R_ground_torque_x	R_ground_torque_y	R_ground_torque_z	L_ground_force_vx	L_ground_force_vy	L_ground_force_vz	L_ground_force_px	L_ground_force_py	L_ground_force_pz	L_ground_torque_x	L_ground_torque_y	L_ground_torque_z	
          0.00000000	        -13.86207300	         75.51637800	          7.65731500	          0.09298500	          0.00600000	         -0.17888000	          0.00000000	          0.48805600	          0.00000000	          0.00000000	          0.00000000	          0.00000000	          0.67258600	          0.00000000	         -0.22985100	          0.00000000	          0.00000000	          0.00000000	
          0.00050000	        -14.17637500	         76.98995600	          7.71025500	          0.09298500	          0.00600000	         -0.17888000	          0.00000000	          0.48816200	          0.00000000	          0.00000000	          0.00000000	          0.00000000	          0.67258600	          0.00000000	         -0.22985100	          0.00000000	          0.00000000	          0.00000000	
          0.00100000	        -14.49398000	         78.47734900	          7.76306100	          0.09298500	          0.00600000	         -0.17888000	          0.00000000	          0.48832400	          0.00000000	          0.00000000	          0.00000000	          0.00000000	          0.67258600	          0.00000000	         -0.22985100	          0.00000000	          0.00000000	          0.00000000	
          0.00150000	        -14.81489800	         79.97856800	          7.81572300	          0.09298500	          0.00600000	         -0.17888000	          0.00000000	          0.48854100	          0.00000000	          0.00000000	          0.00000000	          0.00000000	          0.67258600	          0.00000000	         -0.22985100	          0.00000000	          0.00000000	          0.00000000	
          0.00200000	        -15.13913700	         81.49362000	          7.86822900	          0.09356200	          0.00600000	         -0.17890800	          0.00000000	          0.48881100	          0.00000000	          0.00000000	          0.00000000	          0.00000000	          0.67258600	          0.00000000	         -0.22985100	          0.00000000	          0.00000000	          0.00000000	
          0.00250000	        -15.46670400	         83.02251400	          7.92057000	          0.09412800	          0.00600000	         -0.17893500	          0.00000000	          0.48913100	          0.00000000	          0.00000000	          0.00000000	          0.00000000	          0.67258600	          0.00000000	         -0.22985100	          0.00000000	          0.00000000	          0.00000000	
          0.00300000	        -15.79760800	         84.56525300	          7.97273200	          0.09468200	          0.00600000	         -0.17896000	          0.00000000	          0.48950000	          0.00000000	          0.00000000	          0.00000000	          0.00000000	          0.67258600	          0.00000000	         -0.22985100	          0.00000000	          0.00000000	          0.00000000	
          0.00350000	        -16.13185400	         86.12184000	          8.02470400	          0.09522500	          0.00600000	         -0.17898300	          0.00000000	          0.48991600	          0.00000000	          0.00000000	          0.00000000	          0.00000000	          0.67258600	          0.00000000	         -0.22985100	          0.00000000	          0.00000000	          0.00000000	
          0.00400000	        -16.46945100	         87.69227400	          8.07647600	          0.09575800	          0.00600000	         -0.17900500	          0.00000000	          0.49037600	          0.00000000	          0.00000000	          0.00000000	          0.00000000	          0.67258600	          0.00000000	         -0.22985100	          0.00000000	          0.00000000	          0.00000000	
